<svg xmlns="http://www.w3.org/2000/svg" viewBox="0 0 700 550" id="emergency-funds">
  <path fill="#f7f9f9" d="M197.145 454.532c-33.1-24.874-65.44-73.768-54.988-114.895 8.945-35.2 42.4-37.811 52.407-79.405 8.446-35.106-11.687-48.627-7.147-77.022C198.76 112.268 347.276 53.7 390.695 93.482c31.572 28.928-8.88 94.787 26.098 123.643 33.332 27.496 84.939-20.286 120.574 3.738 50.012 33.719 41.976 187.855-37.387 241.147-24.508 16.457-64.008 16.89-143.006 17.758-83.405.916-125.807.332-159.83-25.236"></path>
  <path fill="#ef403a" d="M613.167 413.766c-8.566-16.549-39.578-75.988-46.094-81.807l10.585-26.176c4.352-10.76-2.808-23.075-14.389-23.858q-.61-.042-1.232-.042h-1.291c-1.387-8.804-5.243-15.147-9.794-15.147h-28.974c-4.55 0-8.406 6.343-9.793 15.147h-.545q-.621 0-1.233.042c-11.58.783-18.74 13.098-14.389 23.858l10.585 26.176-44.497 80.541a44.386 44.386 0 0 0-3.906 34.546c5.264 16.904 20.326 30.202 39.76 30.99q.945.039 1.9.039h74.7q.953 0 1.899-.039c24.286-.984 41.743-21.504 41.786-44.183a43.672 43.672 0 0 0-5.078-20.087Z"></path>
  <path fill="#c62831" d="M503.568 283.81c2.467 15.82 19.324 46.732 19.324 46.732-6.536-20.231-10.707-48.659-10.707-48.659h-.545a17.904 17.904 0 0 0-8.072 1.928ZM569.14 283.797c.023-.15.037-.28.058-.425a17.933 17.933 0 0 0-7.161-1.489h-1.291c-.012-.077-.028-.15-.04-.227l-.187.227s-4.17 28.428-10.707 48.659c0 0 16.867-30.93 19.328-46.745ZM569.198 377.273c-2.468-15.82-19.325-46.731-19.325-46.731 6.537 20.231 10.708 48.659 10.708 48.659h.544a17.904 17.904 0 0 0 8.073-1.928ZM503.626 377.287c-.024.15-.038.28-.058.425a17.933 17.933 0 0 0 7.16 1.489h1.291c.012.077.028.15.041.227l.186-.227s4.17-28.428 10.707-48.66c0 0-16.866 30.93-19.327 46.746Z"></path>
  <path fill="#32333c" d="m537.274 338.277-.938-.001a286.142 286.142 0 0 1-32.553-1.974 3.89 3.89 0 0 1-3.38-4.38 3.889 3.889 0 0 1 4.329-3.342 277.399 277.399 0 0 0 65.096 0 3.894 3.894 0 0 1 4.334 3.346 3.888 3.888 0 0 1-3.379 4.377 286.572 286.572 0 0 1-33.51 1.974ZM526.048 424.441a19.031 19.031 0 0 0 9.63 2.716c5.493 0 8.702-2.9 8.702-7.097 0-3.89-2.222-6.112-7.839-8.273-6.787-2.405-10.986-5.924-10.986-11.789 0-6.48 5.37-11.294 13.455-11.294a18.927 18.927 0 0 1 9.199 2.036l-1.483 4.383a16.545 16.545 0 0 0-7.9-1.976c-5.679 0-7.84 3.396-7.84 6.235 0 3.888 2.531 5.801 8.27 8.024 7.039 2.715 10.617 6.11 10.617 12.22 0 6.42-4.753 11.975-14.565 11.975-4.013 0-8.394-1.172-10.616-2.654Z"></path>
  <path fill="#32333c" d="M535.483 381.403h4.798v57.795h-4.798z"></path>
  <path fill="#585a66" d="M330.983 432.346H80.318a10.164 10.164 0 0 1-10.026-10.274V251.987a10.164 10.164 0 0 1 10.026-10.274h250.665a10.164 10.164 0 0 1 10.027 10.274v170.085a10.164 10.164 0 0 1-10.027 10.274Zm-239.55-11.415h238.436V253.128H91.432Z"></path>
  <path fill="#9fb1c1" d="M181.9 427.522a37.878 37.878 0 0 1-37.878 37.878h143.714a37.878 37.878 0 0 1-37.878-37.878ZM144.022 465.4h158.285a2 2 0 0 1 2 2v10.675H142.022V467.4a2 2 0 0 1 2-2Z"></path>
  <path fill="#d6e4f0" d="M194.093 426.57a38.797 38.797 0 0 1-38.797 38.798h147.2a38.797 38.797 0 0 1-38.796-38.797Z"></path>
  <path fill="#ddd" d="M300.264 465.368h2.233c-.787 0-1.566-.03-2.34-.077l.107.077Z"></path>
  <path fill="#b1c5da" d="m216.883 442.348 47.529-8.383a38.975 38.975 0 0 1-.712-7.394h-69.607a38.797 38.797 0 0 1-38.798 38.797h43.313c-1.624-9.232 1.321-14.428 6.968-18.443a27.772 27.772 0 0 1 11.307-4.577Z"></path>
  <path fill="#add4dc" d="M94.817 424.752h254.465v-167.74H94.817Z"></path>
  <rect width="265.875" height="179.152" x="93.676" y="247.419" fill="#71b8e6" rx="4.564"></rect>
  <path fill="#4b9dd7" d="M109.081 247.992a261.386 261.386 0 0 0-.639 21.02 254.592 254.592 0 0 0 55.982 157.562H98.241a4.563 4.563 0 0 1-4.565-4.565V251.986a4.564 4.564 0 0 1 4.565-4.564h261.31v.57Z"></path>
  <path fill="#32333c" d="M354.987 432.276H98.241a10.281 10.281 0 0 1-10.27-10.27V251.983a10.281 10.281 0 0 1 10.27-10.27h256.746a10.281 10.281 0 0 1 10.27 10.27v170.023a10.281 10.281 0 0 1-10.27 10.27ZM99.382 420.865h254.464V253.124H99.382Z"></path>
  <path fill="#fff" d="M440.553 190.82a13.291 13.291 0 0 0 6.727 1.897c3.838 0 6.08-2.027 6.08-4.96 0-2.716-1.552-4.268-5.476-5.777-4.744-1.682-7.675-4.14-7.675-8.236 0-4.528 3.75-7.891 9.4-7.891a13.201 13.201 0 0 1 6.425 1.422l-1.035 3.062a11.57 11.57 0 0 0-5.52-1.38c-3.967 0-5.476 2.372-5.476 4.356 0 2.716 1.768 4.053 5.778 5.605 4.916 1.897 7.417 4.27 7.417 8.538 0 4.485-3.32 8.366-10.177 8.366a15.012 15.012 0 0 1-7.416-1.854Z"></path>
  <path fill="#ffcb5c" d="M320.74 346.559h175.792v131.515H320.74z"></path>
  <path fill="#f29720" d="M419.51 346.56h-98.77v131.514h175.792C424.516 469.07 419.51 346.56 419.51 346.56Z"></path>
  <rect width="99.71" height="18.959" x="358.781" y="285.516" fill="#ef403a" rx="3.901"></rect>
  <path fill="#c62831" d="M376.48 300.573v-11.157a3.9 3.9 0 0 1 3.9-3.9h-17.698a3.9 3.9 0 0 0-3.9 3.9v11.157a3.901 3.901 0 0 0 3.9 3.902h17.699a3.901 3.901 0 0 1-3.901-3.902Z"></path>
  <rect width="86.135" height="13.576" x="365.569" y="271.94" fill="#add4dc" rx="3.068"></rect>
  <path fill="#97bfc4" d="M379.01 282.447v-7.439a3.068 3.068 0 0 1 3.067-3.068h-13.44a3.068 3.068 0 0 0-3.068 3.068v7.44a3.068 3.068 0 0 0 3.068 3.068h13.44a3.068 3.068 0 0 1-3.068-3.069Z"></path>
  <path fill="#ef403a" d="M408.636 175.975a39.544 39.544 0 0 1 39.544 39.543v56.422h-79.087v-56.422a39.544 39.544 0 0 1 39.543-39.543Z"></path>
  <path fill="#c62831" d="M409.208 176.26h-.009c.006-.074.019-.145.025-.218l.006-.053a39.803 39.803 0 0 1 5.622.489l.036-.007a39.82 39.82 0 0 0-6.252-.496 39.544 39.544 0 0 0-39.543 39.543v56.422h12.502v-56.422a39.548 39.548 0 0 1 27.512-37.665q.036-.8.1-1.594Z"></path>
  <circle cx="408.636" cy="236.011" r="25.162" fill="#fff"></circle>
  <path fill="#ddd" d="M393.774 236.011a25.17 25.17 0 0 1 20.012-24.632 25.162 25.162 0 1 0 0 49.265 25.17 25.17 0 0 1-20.012-24.633Z"></path>
  <path fill="#32333c" d="M403.435 220.915h10.402v29.726h-10.402z"></path>
  <path fill="#32333c" d="M393.774 230.576H423.5v10.402h-29.726z"></path>
  <path fill="#4ca258" d="m486.94 399.828-48.136 8.756-13.823-75.997 48.136-8.756z"></path>
  <path fill="#81c56d" d="m481.134 395.359-38.469 6.997-11.047-60.735 38.469-6.997z"></path>
  <path fill="#4ca258" d="m486.941 399.828-1.977-10.87a10.856 10.856 0 0 0-8.597 12.594l.035.193ZM438.805 408.584l-1.977-10.87a10.856 10.856 0 0 1 12.48 8.76l.036.193Z"></path>
  <circle cx="457.491" cy="374.615" r="10.092" fill="#4ca258"></circle>
  <path fill="#4ca258" d="m334.31 400.647-41.233-26.336 41.58-65.099 41.233 26.337z"></path>
  <path fill="#81c56d" d="m333.096 393.421-32.952-21.047 33.229-52.024 32.952 21.047z"></path>
  <path fill="#4ca258" d="m334.31 400.648 5.947-9.312a10.856 10.856 0 0 0-14.869 3.38l-.105.166ZM293.077 374.311l5.948-9.311a10.856 10.856 0 0 1 3.185 14.912l-.105.165Z"></path>
  <circle cx="329.884" cy="362.132" r="10.092" fill="#4ca258"></circle>
  <rect width="226.206" height="42.085" x="295.533" y="304.475" fill="#ffcb5c" rx="4"></rect>
  <path fill="#ffcb5c" d="M386.27 345.987v7.842a14.661 14.661 0 1 0 29.323 0v-7.842h56.748V326.67H329.522v19.318Zm14.662 14.569a5.52 5.52 0 1 1 5.52-5.52 5.521 5.521 0 0 1-5.52 5.52Z"></path>
  <path fill="#f29720" d="M354.481 342.56v-34.085a4 4 0 0 1 4-4h-58.948a4 4 0 0 0-4 4v34.084a4 4 0 0 0 4 4h58.948a4 4 0 0 1-4-4Z"></path>
  <path fill="#c62831" d="m409.23 175.99-.006.052c-.006.073-.019.144-.025.217h.009a39.515 39.515 0 0 0-.138 3.15 39.22 39.22 0 0 0 .919 8.419h-.002c.006.028.015.055.02.083q.249 1.117.56 2.208c.021.073.035.15.056.222h.007a38.91 38.91 0 0 0 4.876 10.554h-.007l.107.157c.143.214.29.424.436.634q.282.408.575.81.228.31.461.616c.075.098.145.199.222.296h.01a39.32 39.32 0 0 0 8.655 8.184h-.013l.087.052a39.109 39.109 0 0 0 3.907 2.363l.161.098h.03a38.927 38.927 0 0 0 18.043 4.414v-3a39.537 39.537 0 0 0-38.95-39.53Z"></path>
  <circle cx="448.18" cy="179.409" r="31.93" fill="#ffcb5c"></circle>
  <path fill="#f29720" d="M441.955 188.725a10.853 10.853 0 0 0 5.49 1.549c3.134 0 4.965-1.654 4.965-4.048 0-2.218-1.268-3.485-4.471-4.718-3.872-1.372-6.266-3.379-6.266-6.723 0-3.696 3.063-6.442 7.674-6.442a10.793 10.793 0 0 1 5.245 1.161l-.844 2.5a9.443 9.443 0 0 0-4.506-1.127c-3.24 0-4.471 1.937-4.471 3.556 0 2.218 1.443 3.309 4.717 4.576 4.013 1.55 6.055 3.486 6.055 6.97 0 3.661-2.711 6.83-8.308 6.83a12.253 12.253 0 0 1-6.055-1.515Z"></path>
  <path fill="#f29720" d="M447.335 164.179h2.736v32.961h-2.736z"></path>
  <path fill="#f29720" d="M429.17 179.409a31.94 31.94 0 0 1 25.47-31.275 31.93 31.93 0 1 0 0 62.55 31.94 31.94 0 0 1-25.47-31.275Z"></path>
  <path fill="#ffcb5c" d="M447.834 150.359a31.438 31.438 0 0 0-3.781 2.051h-12.925c.56-.356 1.128-.69 1.71-1.012l2.071-1.04ZM439.327 156.055a29.962 29.962 0 0 0-2.01 2.052h-12.919q.954-1.067 2.004-2.052ZM432.475 165.253q-.503 1.005-.923 2.052h-12.919q.421-1.047.924-2.052ZM429.507 174.786c-.103.677-.178 1.361-.233 2.052h-12.918c.055-.691.13-1.375.233-2.052ZM430.437 188.333h-12.918c-.199-.67-.37-1.354-.52-2.051h12.918c.15.697.322 1.374.52 2.051ZM435.88 199.002h-12.91a31.095 31.095 0 0 1-1.471-2.052h12.918c.458.705.95 1.388 1.464 2.052ZM433.425 207.735h12.932a31.668 31.668 0 0 1-3.405-2.052h-12.919Z"></path>
  <circle cx="224.111" cy="346.257" r="43.083" fill="#ffcb5c"></circle>
  <path fill="#f29720" d="M215.71 358.827a14.647 14.647 0 0 0 7.41 2.09c4.228 0 6.698-2.233 6.698-5.462 0-2.994-1.71-4.704-6.032-6.366-5.226-1.852-8.455-4.56-8.455-9.073 0-4.987 4.132-8.692 10.355-8.692a14.544 14.544 0 0 1 7.077 1.567l-1.14 3.373a12.746 12.746 0 0 0-6.08-1.52c-4.37 0-6.033 2.613-6.033 4.797 0 2.993 1.949 4.465 6.366 6.175 5.415 2.09 8.17 4.703 8.17 9.406 0 4.94-3.658 9.214-11.21 9.214a16.547 16.547 0 0 1-8.17-2.042Z"></path>
  <path fill="#f29720" d="M222.97 325.707h3.691v44.476h-3.691z"></path>
  <path fill="#f29720" d="M198.46 346.257a43.097 43.097 0 0 1 34.367-42.2 43.083 43.083 0 1 0 0 84.4 43.097 43.097 0 0 1-34.368-42.2Z"></path>
  <path fill="#ffcb5c" d="M223.645 307.059a42.42 42.42 0 0 0-5.103 2.768h-17.44c.756-.48 1.522-.932 2.307-1.365l2.796-1.403ZM212.166 314.745c-.942.877-1.855 1.8-2.713 2.769h-17.431q1.287-1.44 2.704-2.769ZM202.92 327.156q-.679 1.357-1.246 2.769h-17.43q.567-1.412 1.245-2.769ZM198.915 340.02c-.139.913-.24 1.836-.314 2.768h-17.43c.073-.932.175-1.855.313-2.768ZM200.17 358.3h-17.43a37.894 37.894 0 0 1-.702-2.77h17.43c.204.942.434 1.856.702 2.77ZM207.515 372.694h-17.422a41.96 41.96 0 0 1-1.983-2.768h17.43c.618.95 1.283 1.873 1.975 2.768ZM204.202 384.478h17.45a42.728 42.728 0 0 1-4.596-2.769h-17.43Z"></path>
  <path fill="#222328" d="M79.143 478h5.385v4h-5.385zM87.408 478h11.68v4h-11.68zM101.927 478h211.161v4H101.927zM316.928 478h297.359v4H316.928zM619.727 478h9.981v4h-9.981z"></path>
</svg>
